<svg xmlns="http://www.w3.org/2000/svg" width="1080" height="420" viewBox="0 0 1080 420">
<rect width="100%" height="100%" fill="white"/>
<style>text{font-family:Arial,sans-serif;fill:#111827;font-size:15px}.title{font-size:24px;font-weight:700}.small{fill:#4b5563;font-size:13px}</style>
<text x="36" y="42" class="title">KolektorSDD final-only inspection baseline</text>
<text x="36" y="66" class="small">A strong final model is required before evaluating early rejection.</text>
<text x="36" y="118" font-weight="700">mobilenet_v3_small</text>
<text x="70" y="158" class="small">Good recall</text>
<rect x="200" y="142" width="720" height="22" fill="#e5e7eb"/>
<rect x="200" y="142" width="720.0" height="22" fill="#2563eb"/>
<text x="940" y="158">100.0%</text>
<text x="70" y="196" class="small">Defect recall</text>
<rect x="200" y="180" width="720" height="22" fill="#e5e7eb"/>
<rect x="200" y="180" width="648.0" height="22" fill="#dc2626"/>
<text x="940" y="196">90.0%</text>
<text x="36" y="228" font-weight="700">shufflenet_v2_x1_0</text>
<text x="70" y="268" class="small">Good recall</text>
<rect x="200" y="252" width="720" height="22" fill="#e5e7eb"/>
<rect x="200" y="252" width="678.9" height="22" fill="#2563eb"/>
<text x="940" y="268">94.3%</text>
<text x="70" y="306" class="small">Defect recall</text>
<rect x="200" y="290" width="720" height="22" fill="#e5e7eb"/>
<rect x="200" y="290" width="720.0" height="22" fill="#dc2626"/>
<text x="940" y="306">100.0%</text>
<text x="36" y="338" font-weight="700">resnet18</text>
<text x="70" y="378" class="small">Good recall</text>
<rect x="200" y="362" width="720" height="22" fill="#e5e7eb"/>
<rect x="200" y="362" width="720.0" height="22" fill="#2563eb"/>
<text x="940" y="378">100.0%</text>
<text x="70" y="416" class="small">Defect recall</text>
<rect x="200" y="400" width="720" height="22" fill="#e5e7eb"/>
<rect x="200" y="400" width="648.0" height="22" fill="#dc2626"/>
<text x="940" y="416">90.0%</text>
</svg>