<svg xmlns="http://www.w3.org/2000/svg" width="1180" height="520" viewBox="0 0 1180 520">
<rect width="100%" height="100%" fill="white"/>
<style>text{font-family:Arial,'Yu Gothic',Meiryo,sans-serif;fill:#0f172a;font-size:14px}.title{font-size:23px;font-weight:700}.muted{fill:#475569;font-size:12px}</style>
<text x="32" y="36" class="title">下側出口: 単純しきい値 vs 後段改善見込み判定器</text>
<text x="32" y="58" class="muted">99%通過精度・評価側でも良品ロス2%以内。棒は早期棄却率、右端は速度換算。</text>
<text x="32" y="98">cleanのみ</text>
<text x="148" y="90" class="muted">単純</text><rect x="190" y="76" width="360" height="18" fill="#e2e8f0"/><rect x="190" y="76" width="57.9" height="18" fill="#94a3b8"/><text x="564" y="90">4.2%</text><text x="632" y="90" class="muted">1.04x / lost 1.48%</text>
<text x="148" y="114" class="muted">専用</text><rect x="190" y="100" width="360" height="18" fill="#e2e8f0"/><rect x="190" y="100" width="70.8" height="18" fill="#2563eb"/><text x="564" y="114">5.1%</text><text x="632" y="114" class="muted">1.05x / lost 1.74%</text>
<text x="32" y="156">低品質10%</text>
<text x="148" y="148" class="muted">単純</text><rect x="190" y="134" width="360" height="18" fill="#e2e8f0"/><rect x="190" y="134" width="71.6" height="18" fill="#94a3b8"/><text x="564" y="148">5.2%</text><text x="632" y="148" class="muted">1.05x / lost 1.64%</text>
<text x="148" y="172" class="muted">専用</text><rect x="190" y="158" width="360" height="18" fill="#e2e8f0"/><rect x="190" y="158" width="153.5" height="18" fill="#2563eb"/><text x="564" y="172">11.1%</text><text x="632" y="172" class="muted">1.07x / lost 1.84%</text>
<text x="32" y="214">低品質20%</text>
<text x="148" y="206" class="muted">単純</text><rect x="190" y="192" width="360" height="18" fill="#e2e8f0"/><rect x="190" y="192" width="80.0" height="18" fill="#94a3b8"/><text x="564" y="206">5.8%</text><text x="632" y="206" class="muted">1.06x / lost 1.68%</text>
<text x="148" y="230" class="muted">専用</text><rect x="190" y="216" width="360" height="18" fill="#e2e8f0"/><rect x="190" y="216" width="106.5" height="18" fill="#2563eb"/><text x="564" y="230">7.7%</text><text x="632" y="230" class="muted">1.08x / lost 1.86%</text>
<text x="32" y="272">遮蔽25%</text>
<text x="148" y="264" class="muted">単純</text><rect x="190" y="250" width="360" height="18" fill="#e2e8f0"/><rect x="190" y="250" width="160.2" height="18" fill="#94a3b8"/><text x="564" y="264">11.6%</text><text x="632" y="264" class="muted">1.12x / lost 1.54%</text>
<text x="148" y="288" class="muted">専用</text><rect x="190" y="274" width="360" height="18" fill="#e2e8f0"/><rect x="190" y="274" width="360.0" height="18" fill="#2563eb"/><text x="564" y="288">26.1%</text><text x="632" y="288" class="muted">1.19x / lost 1.88%</text>
<text x="32" y="330">JPEG劣化25%</text>
<text x="148" y="322" class="muted">単純</text><rect x="190" y="308" width="360" height="18" fill="#e2e8f0"/><rect x="190" y="308" width="119.8" height="18" fill="#94a3b8"/><text x="564" y="322">8.7%</text><text x="632" y="322" class="muted">1.09x / lost 2.00%</text>
<text x="148" y="346" class="muted">専用</text><rect x="190" y="332" width="360" height="18" fill="#e2e8f0"/><rect x="190" y="332" width="309.7" height="18" fill="#2563eb"/><text x="564" y="346">22.5%</text><text x="632" y="346" class="muted">1.16x / lost 1.78%</text>
<text x="32" y="388">低品質60%</text>
<text x="148" y="380" class="muted">単純</text><rect x="190" y="366" width="360" height="18" fill="#e2e8f0"/><text x="564" y="380" class="muted">有効設定なし</text>
<text x="148" y="404" class="muted">専用</text><rect x="190" y="390" width="360" height="18" fill="#e2e8f0"/><rect x="190" y="390" width="360.0" height="18" fill="#2563eb"/><text x="564" y="404">30.9%</text><text x="632" y="404" class="muted">1.41x / lost 1.96%</text>
<text x="190" y="460" class="muted">灰: 単純な低信頼度しきい値 / 青: 後段改善見込み判定器</text>
</svg>
